<mxfile host="app.diagrams.net" modified="2022-03-25T09:48:51.404Z" agent="5.0 (Windows NT 10.0; WOW64) AppleWebKit/537.36 (KHTML, like Gecko) Chrome/99.0.4844.82 Safari/537.36" etag="b4Imhqtw6AuzDIpLjUqA" version="17.2.2" type="github">
  <diagram id="mYCVvnoqSooHS_Cqvcj3" name="Page-1">
    <mxGraphModel dx="1550" dy="835" grid="1" gridSize="10" guides="1" tooltips="1" connect="1" arrows="1" fold="1" page="1" pageScale="1" pageWidth="827" pageHeight="1169" math="0" shadow="0">
      <root>
        <mxCell id="0" />
        <mxCell id="1" parent="0" />
        <mxCell id="dqSc_5AiH_0_V2ETggPR-12" style="edgeStyle=orthogonalEdgeStyle;rounded=0;orthogonalLoop=1;jettySize=auto;html=1;" edge="1" parent="1" source="dqSc_5AiH_0_V2ETggPR-1" target="dqSc_5AiH_0_V2ETggPR-3">
          <mxGeometry relative="1" as="geometry" />
        </mxCell>
        <mxCell id="dqSc_5AiH_0_V2ETggPR-1" value="Actor" style="shape=umlActor;verticalLabelPosition=bottom;verticalAlign=top;html=1;outlineConnect=0;" vertex="1" parent="1">
          <mxGeometry x="235" y="92" width="30" height="60" as="geometry" />
        </mxCell>
        <mxCell id="dqSc_5AiH_0_V2ETggPR-2" value="I want DATA!" style="text;html=1;strokeColor=none;fillColor=none;align=center;verticalAlign=middle;whiteSpace=wrap;rounded=0;" vertex="1" parent="1">
          <mxGeometry x="260" y="72" width="60" height="30" as="geometry" />
        </mxCell>
        <mxCell id="dqSc_5AiH_0_V2ETggPR-18" value="No" style="edgeStyle=orthogonalEdgeStyle;rounded=0;orthogonalLoop=1;jettySize=auto;html=1;" edge="1" parent="1" source="dqSc_5AiH_0_V2ETggPR-3" target="dqSc_5AiH_0_V2ETggPR-17">
          <mxGeometry relative="1" as="geometry" />
        </mxCell>
        <mxCell id="dqSc_5AiH_0_V2ETggPR-29" value="Yes" style="edgeStyle=orthogonalEdgeStyle;rounded=0;orthogonalLoop=1;jettySize=auto;html=1;" edge="1" parent="1" source="dqSc_5AiH_0_V2ETggPR-3" target="dqSc_5AiH_0_V2ETggPR-28">
          <mxGeometry x="-0.2268" y="-2" relative="1" as="geometry">
            <mxPoint as="offset" />
          </mxGeometry>
        </mxCell>
        <mxCell id="dqSc_5AiH_0_V2ETggPR-3" value="Will you follow the rules?" style="rounded=0;whiteSpace=wrap;html=1;" vertex="1" parent="1">
          <mxGeometry x="190" y="198" width="120" height="60" as="geometry" />
        </mxCell>
        <mxCell id="dqSc_5AiH_0_V2ETggPR-13" value="Policy Agent" style="rhombus;whiteSpace=wrap;html=1;rounded=0;" vertex="1" parent="1">
          <mxGeometry x="358" y="326" width="90" height="80" as="geometry" />
        </mxCell>
        <mxCell id="dqSc_5AiH_0_V2ETggPR-16" value="DB" style="shape=cylinder3;whiteSpace=wrap;html=1;boundedLbl=1;backgroundOutline=1;size=15;" vertex="1" parent="1">
          <mxGeometry x="369" y="600" width="70" height="100" as="geometry" />
        </mxCell>
        <mxCell id="dqSc_5AiH_0_V2ETggPR-19" style="edgeStyle=orthogonalEdgeStyle;rounded=0;orthogonalLoop=1;jettySize=auto;html=1;" edge="1" parent="1" source="dqSc_5AiH_0_V2ETggPR-17" target="dqSc_5AiH_0_V2ETggPR-13">
          <mxGeometry relative="1" as="geometry" />
        </mxCell>
        <mxCell id="dqSc_5AiH_0_V2ETggPR-24" style="edgeStyle=orthogonalEdgeStyle;rounded=0;orthogonalLoop=1;jettySize=auto;html=1;entryX=0;entryY=0.5;entryDx=0;entryDy=0;" edge="1" parent="1" source="dqSc_5AiH_0_V2ETggPR-17" target="dqSc_5AiH_0_V2ETggPR-23">
          <mxGeometry relative="1" as="geometry">
            <mxPoint x="250" y="500" as="targetPoint" />
            <Array as="points">
              <mxPoint x="250" y="490" />
            </Array>
          </mxGeometry>
        </mxCell>
        <mxCell id="dqSc_5AiH_0_V2ETggPR-17" value="Service" style="rounded=1;whiteSpace=wrap;html=1;" vertex="1" parent="1">
          <mxGeometry x="190" y="340" width="120" height="60" as="geometry" />
        </mxCell>
        <mxCell id="dqSc_5AiH_0_V2ETggPR-26" style="edgeStyle=orthogonalEdgeStyle;rounded=0;orthogonalLoop=1;jettySize=auto;html=1;" edge="1" parent="1" source="dqSc_5AiH_0_V2ETggPR-20" target="dqSc_5AiH_0_V2ETggPR-21">
          <mxGeometry relative="1" as="geometry" />
        </mxCell>
        <mxCell id="dqSc_5AiH_0_V2ETggPR-20" value="Views" style="shape=parallelogram;perimeter=parallelogramPerimeter;whiteSpace=wrap;html=1;fixedSize=1;" vertex="1" parent="1">
          <mxGeometry x="50" y="470" width="120" height="60" as="geometry" />
        </mxCell>
        <mxCell id="dqSc_5AiH_0_V2ETggPR-25" style="edgeStyle=orthogonalEdgeStyle;rounded=0;orthogonalLoop=1;jettySize=auto;html=1;entryX=0;entryY=0.5;entryDx=0;entryDy=0;entryPerimeter=0;" edge="1" parent="1" source="dqSc_5AiH_0_V2ETggPR-21" target="dqSc_5AiH_0_V2ETggPR-16">
          <mxGeometry relative="1" as="geometry" />
        </mxCell>
        <mxCell id="dqSc_5AiH_0_V2ETggPR-21" value="SQL Audit Log" style="shape=card;whiteSpace=wrap;html=1;" vertex="1" parent="1">
          <mxGeometry x="70" y="600" width="80" height="100" as="geometry" />
        </mxCell>
        <mxCell id="dqSc_5AiH_0_V2ETggPR-23" value="Log Agent" style="rhombus;whiteSpace=wrap;html=1;" vertex="1" parent="1">
          <mxGeometry x="358" y="450" width="92" height="80" as="geometry" />
        </mxCell>
        <mxCell id="dqSc_5AiH_0_V2ETggPR-30" style="edgeStyle=orthogonalEdgeStyle;rounded=0;orthogonalLoop=1;jettySize=auto;html=1;entryX=1;entryY=0;entryDx=0;entryDy=67.5;entryPerimeter=0;" edge="1" parent="1" source="dqSc_5AiH_0_V2ETggPR-28" target="dqSc_5AiH_0_V2ETggPR-16">
          <mxGeometry relative="1" as="geometry">
            <Array as="points">
              <mxPoint x="600" y="668" />
            </Array>
          </mxGeometry>
        </mxCell>
        <mxCell id="dqSc_5AiH_0_V2ETggPR-28" value="OData API" style="rounded=1;whiteSpace=wrap;html=1;" vertex="1" parent="1">
          <mxGeometry x="540" y="322" width="120" height="58" as="geometry" />
        </mxCell>
      </root>
    </mxGraphModel>
  </diagram>
</mxfile>
